<svg width="156" height="35" viewBox="0 0 156 35" fill="none" xmlns="http://www.w3.org/2000/svg">
<path d="M0.52 26V0.079999H5.416V10.736H17.008V0.079999H21.904V26H17.008V15.308H5.416V26H0.52ZM35.7055 26.54C33.7495 26.54 32.0335 26.102 30.5575 25.226C29.0815 24.35 27.9295 23.144 27.1015 21.608C26.2855 20.06 25.8775 18.284 25.8775 16.28C25.8775 14.252 26.2975 12.47 27.1375 10.934C27.9775 9.386 29.1355 8.18 30.6115 7.316C32.0875 6.452 33.7855 6.02 35.7055 6.02C37.6615 6.02 39.3775 6.458 40.8535 7.334C42.3415 8.21 43.4995 9.422 44.3275 10.97C45.1555 12.506 45.5695 14.276 45.5695 16.28C45.5695 18.296 45.1495 20.078 44.3095 21.626C43.4815 23.162 42.3235 24.368 40.8355 25.244C39.3595 26.108 37.6495 26.54 35.7055 26.54ZM35.7055 21.968C37.2775 21.968 38.4475 21.44 39.2155 20.384C39.9955 19.316 40.3855 17.948 40.3855 16.28C40.3855 14.552 39.9895 13.172 39.1975 12.14C38.4175 11.108 37.2535 10.592 35.7055 10.592C34.6375 10.592 33.7615 10.832 33.0775 11.312C32.3935 11.792 31.8835 12.458 31.5475 13.31C31.2235 14.162 31.0615 15.152 31.0615 16.28C31.0615 18.02 31.4515 19.406 32.2315 20.438C33.0235 21.458 34.1815 21.968 35.7055 21.968ZM58.0958 26.54C56.0798 26.54 54.3518 26.09 52.9118 25.19C51.4718 24.29 50.3678 23.066 49.5998 21.518C48.8318 19.97 48.4478 18.224 48.4478 16.28C48.4478 14.312 48.8438 12.554 49.6358 11.006C50.4398 9.458 51.5678 8.24 53.0198 7.352C54.4718 6.464 56.1878 6.02 58.1678 6.02C60.4598 6.02 62.3798 6.602 63.9278 7.766C65.4878 8.918 66.4838 10.496 66.9158 12.5L62.0198 13.796C61.7318 12.788 61.2278 12.002 60.5078 11.438C59.7998 10.874 58.9958 10.592 58.0958 10.592C57.0638 10.592 56.2178 10.844 55.5578 11.348C54.8978 11.84 54.4118 12.518 54.0998 13.382C53.7878 14.234 53.6318 15.2 53.6318 16.28C53.6318 17.972 54.0038 19.346 54.7478 20.402C55.5038 21.446 56.6198 21.968 58.0958 21.968C59.1998 21.968 60.0398 21.716 60.6158 21.212C61.1918 20.708 61.6238 19.988 61.9118 19.052L66.9158 20.096C66.3638 22.16 65.3198 23.75 63.7838 24.866C62.2478 25.982 60.3518 26.54 58.0958 26.54ZM70.4801 26L70.5161 0.079999H75.4841V15.92L82.0721 6.56H88.1201L81.1001 16.28L88.5881 26H82.2161L75.4841 16.64V26H70.4801ZM99.0638 26.54C97.0718 26.54 95.3138 26.114 93.7898 25.262C92.2778 24.398 91.0898 23.216 90.2258 21.716C89.3738 20.204 88.9478 18.476 88.9478 16.532C88.9478 14.408 89.3678 12.56 90.2078 10.988C91.0478 9.416 92.2058 8.198 93.6818 7.334C95.1578 6.458 96.8558 6.02 98.7758 6.02C100.816 6.02 102.55 6.5 103.978 7.46C105.406 8.42 106.462 9.77 107.146 11.51C107.83 13.25 108.07 15.296 107.866 17.648H103.024V15.848C103.024 13.868 102.706 12.446 102.07 11.582C101.446 10.706 100.42 10.268 98.9918 10.268C97.3238 10.268 96.0938 10.778 95.3018 11.798C94.5218 12.806 94.1318 14.3 94.1318 16.28C94.1318 18.092 94.5218 19.496 95.3018 20.492C96.0938 21.476 97.2518 21.968 98.7758 21.968C99.7358 21.968 100.558 21.758 101.242 21.338C101.926 20.918 102.448 20.312 102.808 19.52L107.704 20.924C106.972 22.7 105.814 24.08 104.23 25.064C102.658 26.048 100.936 26.54 99.0638 26.54ZM92.6198 17.648V14.012H105.508V17.648H92.6198ZM114.063 34.64L117.807 24.344L117.879 27.368L109.419 6.56H114.495L120.183 21.284H119.031L124.683 6.56H129.579L118.599 34.64H114.063ZM147.792 26.54C145.344 26.54 143.364 25.988 141.852 24.884C140.352 23.768 139.44 22.196 139.116 20.168L144.12 19.412C144.324 20.324 144.774 21.038 145.47 21.554C146.178 22.07 147.072 22.328 148.152 22.328C149.04 22.328 149.724 22.16 150.204 21.824C150.684 21.476 150.924 20.996 150.924 20.384C150.924 20 150.828 19.694 150.636 19.466C150.444 19.226 150.012 18.992 149.34 18.764C148.68 18.536 147.648 18.236 146.244 17.864C144.66 17.456 143.394 17 142.446 16.496C141.498 15.992 140.814 15.392 140.394 14.696C139.974 13.988 139.764 13.136 139.764 12.14C139.764 10.892 140.082 9.812 140.718 8.9C141.354 7.976 142.248 7.268 143.4 6.776C144.564 6.272 145.932 6.02 147.504 6.02C149.028 6.02 150.378 6.254 151.554 6.722C152.73 7.19 153.678 7.856 154.398 8.72C155.13 9.584 155.58 10.604 155.748 11.78L150.744 12.68C150.66 11.96 150.348 11.39 149.808 10.97C149.268 10.55 148.536 10.304 147.612 10.232C146.712 10.172 145.986 10.292 145.434 10.592C144.894 10.892 144.624 11.324 144.624 11.888C144.624 12.224 144.738 12.506 144.966 12.734C145.206 12.962 145.692 13.196 146.424 13.436C147.168 13.676 148.296 13.988 149.808 14.372C151.284 14.756 152.466 15.206 153.354 15.722C154.254 16.226 154.908 16.838 155.316 17.558C155.724 18.266 155.928 19.124 155.928 20.132C155.928 22.124 155.208 23.69 153.768 24.83C152.328 25.97 150.336 26.54 147.792 26.54Z" fill="#131318"/>
<path d="M132.83 9.836L133.118 7.784C133.694 7.832 134.162 7.742 134.522 7.514C134.882 7.274 135.128 6.938 135.26 6.506C135.404 6.062 135.434 5.552 135.35 4.976H132.83V0.079999H137.726V4.976C137.726 6.704 137.324 8.012 136.52 8.9C135.716 9.788 134.486 10.1 132.83 9.836Z" fill="#FF4240"/>
</svg>
